<svg width="24" height="24" fill="none" xmlns="http://www.w3.org/2000/svg"><path d="M20.761 3H3.24C1.453 3 0 4.545 0 6.443v10.114C0 18.455 1.453 20 3.239 20H20.76c1.787 0 3.24-1.545 3.24-3.443V6.443C24 4.545 22.547 3 20.761 3zM3.24 5.096h17.52c.7 0 1.268.604 1.268 1.347v.815H1.97v-.815c0-.743.569-1.347 1.268-1.347zm17.52 12.808H3.24c-.7 0-1.268-.604-1.268-1.347V9.354H22.03v7.203c0 .743-.569 1.347-1.268 1.347z" fill="#fff"/><path d="M5.992 12.516H4.49a.986.986 0 100 1.972h1.502a.986.986 0 000-1.972z" fill="#fff"/></svg>