<svg width="14" height="24" fill="none" xmlns="http://www.w3.org/2000/svg"><path d="M6.962 5.124c1.253 0 2.27-1.036 2.27-2.24a2.273 2.273 0 00-2.27-2.28c-1.252 0-2.24 1.017-2.24 2.28 0 1.204.988 2.24 2.24 2.24zm3.212 17.94c.536 0 1.017-.396 1.017-1.055 0-.245-.066-.471-.198-.735l-2.015-4.087a6.811 6.811 0 00-.575-.96L7.17 14.475l.075-.235c.339-1.083.47-1.742.546-2.778l.207-2.91c.104-1.431-.725-2.599-2.222-2.599-1.092 0-1.883.593-2.9 1.582L1.33 9.07c-.527.518-.697.942-.744 1.6L.39 13.064c-.047.65.32 1.073.904 1.11.556.039.97-.291 1.036-.988l.217-2.618.913-.81c.17-.15.415-.065.396.189l-.17 2.354c-.084 1.14.415 1.968.98 2.674l2.015 2.534c.198.244.226.338.32.517l2.147 4.36c.254.509.631.678 1.027.678zm.442-11.122h2.28c.658 0 1.073-.386 1.073-.97s-.424-.97-1.083-.97h-2.383L8.846 8.204l-.18 2.59.707.705c.34.34.66.443 1.243.443zM1.04 23.063c.33 0 .622-.15.829-.395L4.9 19.06c.31-.376.349-.47.48-.838.076-.245.142-.48.198-.706L3.845 15.35l-.508 2.364-2.872 3.409c-.264.3-.443.565-.443.941 0 .584.443.998 1.017.998z" fill="#FAFAFA"/></svg>