<svg width="23" height="23" fill="none" xmlns="http://www.w3.org/2000/svg"><g clip-path="url(#clip0_2_455)" fill="#fff"><path d="M22.041 23a.956.956 0 01-.677-.28l-6.69-6.69a.957.957 0 111.356-1.355l6.689 6.69A.957.957 0 0122.04 23z"/><path d="M9.344 18.688C4.192 18.688 0 14.495 0 9.344 0 4.192 4.192 0 9.344 0c5.152 0 9.344 4.192 9.344 9.344 0 5.152-4.192 9.344-9.344 9.344zm0-16.771c-4.095 0-7.427 3.332-7.427 7.427s3.332 7.427 7.427 7.427 7.427-3.332 7.427-7.427-3.332-7.427-7.427-7.427z"/></g><defs><clipPath id="clip0_2_455"><path fill="#fff" d="M0 0h23v23H0z"/></clipPath></defs></svg>