<svg width="19" height="20" fill="none" xmlns="http://www.w3.org/2000/svg"><path d="M14.067 19.36c1.648 0 2.769-.47 3.786-1.572.066-.075.132-.16.197-.235.556-.622.83-1.272.83-1.874 0-.707-.377-1.347-1.216-1.921l-2.806-1.96c-.885-.611-1.911-.658-2.702.133l-.697.697c-.245.244-.48.263-.763.066-.508-.34-1.469-1.187-2.128-1.846-.669-.669-1.347-1.422-1.714-1.997-.198-.292-.179-.518.066-.762l.697-.697c.79-.791.744-1.818.122-2.703L5.743 1.836C5.187 1.026 4.519.649 3.813.64c-.603-.01-1.244.264-1.865.81l-.226.197C.602 2.674.12 3.776.12 5.49c0 2.778 1.61 6.055 4.746 9.172 3.117 3.098 6.356 4.699 9.2 4.699zm0-1.572c-2.401.038-5.386-1.667-8.004-4.266-2.637-2.599-4.388-5.697-4.35-8.098.018-1.008.376-1.893 1.082-2.515.076-.056.132-.103.207-.16.264-.226.547-.348.81-.348.273 0 .518.113.707.395l1.76 2.646c.226.32.236.688-.094 1.008l-.753.744c-.716.697-.65 1.516-.198 2.156.509.707 1.46 1.79 2.26 2.58.857.848 2.025 1.893 2.703 2.383.64.452 1.46.518 2.156-.198l.744-.753c.311-.33.678-.32 1.008-.104l2.599 1.733c.292.189.395.424.395.697 0 .264-.122.546-.348.82a3.646 3.646 0 00-.16.197c-.622.716-1.507 1.074-2.524 1.083z" fill="#21A038"/></svg>