<svg width="33" height="33" fill="none" xmlns="http://www.w3.org/2000/svg"><g clip-path="url(#clip0_2_444)"><path d="M30.812 31.915L28.304 8.031a.982.982 0 00-.977-.88h-4.714V6.076A6.083 6.083 0 0016.537 0a6.083 6.083 0 00-6.077 6.076v1.075H5.746a.982.982 0 00-.977.88L2.261 31.915A.984.984 0 003.238 33h26.597a.982.982 0 00.977-1.085zM12.425 6.076a4.117 4.117 0 014.112-4.112 4.117 4.117 0 014.112 4.112v1.075h-8.224V6.076zm-8.096 24.96L6.63 9.116h3.83v2.164a.982.982 0 001.964 0V9.115h8.224v2.165a.982.982 0 001.964 0V9.115h3.83l2.302 21.92H4.329z" fill="#8168F0"/></g><defs><clipPath id="clip0_2_444"><path fill="#fff" d="M0 0h33v33H0z"/></clipPath></defs></svg>