<svg width="26" height="26" fill="none" xmlns="http://www.w3.org/2000/svg"><g clip-path="url(#clip0_2_497)"><path d="M13 26a12.915 12.915 0 01-9.192-3.808A12.915 12.915 0 010 13c0-3.472 1.352-6.737 3.808-9.192A12.915 12.915 0 0113 0c3.472 0 6.737 1.352 9.192 3.808A12.915 12.915 0 0126 13c0 3.472-1.352 6.737-3.808 9.192A12.915 12.915 0 0113 26zm0-23.969C6.952 2.031 2.031 6.951 2.031 13c0 6.048 4.92 10.969 10.969 10.969 6.048 0 10.969-4.92 10.969-10.969 0-6.048-4.92-10.969-10.969-10.969zm4.76 13.213a1.015 1.015 0 00-1.402.312c-.012.02-1.277 1.967-3.409 1.967-2.132 0-3.396-1.948-3.409-1.967a1.016 1.016 0 00-1.713 1.09c.075.119 1.887 2.908 5.122 2.908s5.047-2.79 5.123-2.908c.3-.473.161-1.1-.312-1.402zM8.531 8.379a1.27 1.27 0 110 2.539 1.27 1.27 0 010-2.54zm7.617 1.27a1.27 1.27 0 102.54 0 1.27 1.27 0 00-2.54 0z" fill="#fff"/></g><defs><clipPath id="clip0_2_497"><path fill="#fff" d="M0 0h26v26H0z"/></clipPath></defs></svg>